<?xml version="1.0" encoding="UTF-8" standalone="no"?>
<svg
   xmlns:dc="http://purl.org/dc/elements/1.1/"
   xmlns:cc="http://creativecommons.org/ns#"
   xmlns:rdf="http://www.w3.org/1999/02/22-rdf-syntax-ns#"
   xmlns:svg="http://www.w3.org/2000/svg"
   xmlns="http://www.w3.org/2000/svg"
   xmlns:sodipodi="http://sodipodi.sourceforge.net/DTD/sodipodi-0.dtd"
   xmlns:inkscape="http://www.inkscape.org/namespaces/inkscape"
   class="icon"
   width="200px"
   height="200.00px"
   viewBox="0 0 1024 1024"
   version="1.1"
   id="svg6"
   sodipodi:docname="musicc.svg"
   inkscape:version="0.92.3 (2405546, 2018-03-11)">
  <metadata
     id="metadata12">
    <rdf:RDF>
      <cc:Work
         rdf:about="">
        <dc:format>image/svg+xml</dc:format>
        <dc:type
           rdf:resource="http://purl.org/dc/dcmitype/StillImage" />
      </cc:Work>
    </rdf:RDF>
  </metadata>
  <defs
     id="defs10">
    <style
       id="style10"
       type="text/css" />
  </defs>
  <sodipodi:namedview
     pagecolor="#ffffff"
     bordercolor="#666666"
     borderopacity="1"
     objecttolerance="10"
     gridtolerance="10"
     guidetolerance="10"
     inkscape:pageopacity="0"
     inkscape:pageshadow="2"
     inkscape:window-width="1366"
     inkscape:window-height="741"
     id="namedview8"
     showgrid="false"
     inkscape:zoom="1.18"
     inkscape:cx="100"
     inkscape:cy="93.220339"
     inkscape:window-x="0"
     inkscape:window-y="27"
     inkscape:window-maximized="1"
     inkscape:current-layer="svg6" />
  <path
     d="m 739.92258,23.122581 -6.60645,-6.606452 H 188.28387 c -46.24516,0 -82.58064,36.335484 -82.58064,82.580645 V 924.90323 c 0,46.24516 36.33548,82.58067 82.58064,82.58067 H 832.4129 c 46.24516,0 82.58065,-36.33551 82.58065,-82.58067 V 201.49677 Z"
     id="path2"
     inkscape:connector-curvature="0"
     style="fill:#99cc33"
     sodipodi:nodetypes="ccsssssscc" />
  <path
     d="M733.316129 16.516129h-3.303226v132.129032c0 16.516129 8.258065 52.851613 57.806452 52.851613h127.174193L733.316129 16.516129z"
     fill="#A6CBFF"
     id="path4"
     style="fill:#669900" />
  <g
     id="g27"
     transform="matrix(0.73348919,0,0,0.73348919,98.256771,162.48743)"
     style="fill:#ffffff">
    <path
       id="path14"
       p-id="1201"
       d="m 405.33333,704 m -192,0 a 192,192 0 1 0 384,0 192,192 0 1 0 -384,0 z"
       inkscape:connector-curvature="0"
       style="fill:#ffffff" />
    <path
       id="path16"
       p-id="1202"
       d="m 512,128 v 576 h 85.33333 V 298.66667 l 234.66667,64 V 213.33333 Z"
       inkscape:connector-curvature="0"
       style="fill:#ffffff" />
  </g>
</svg>
