<?xml version="1.0" standalone="no"?><!DOCTYPE svg PUBLIC "-//W3C//DTD SVG 1.1//EN" "http://www.w3.org/Graphics/SVG/1.1/DTD/svg11.dtd"><svg t="1546395987424" class="icon" style="" viewBox="0 0 1024 1024" version="1.1" xmlns="http://www.w3.org/2000/svg" p-id="2046" xmlns:xlink="http://www.w3.org/1999/xlink" width="200" height="200"><defs><style type="text/css"></style></defs><path d="M853.384158 700.213639c-7.601118 0-15.480576-2.287089-24.084535-6.991228-5.482875-3.000334-11.070126-6.610558-16.60826-10.743692a584.768327 584.768327 0 0 1-13.43294-10.312879c-5.167696-4.089132-8.946766-7.509021-11.827373-10.704807-4.835122-5.113461-11.870352-13.030781-21.481244-24.181748-9.958816-11.56029-20.195971-24.808012-30.422893-39.368636-10.465352-14.911618-19.771299-30.390147-27.650757-46.001707-9.256828-18.334577-13.95585-36.077683-13.95585-52.725852 0-16.926508 4.928243-34.797527 15.061021-54.634318 8.66331-16.947997 19.041682-33.659611 30.847565-49.674353 11.56029-15.690354 23.975041-30.583552 36.897352-44.255946 13.232372-13.999852 24.100908-24.320918 33.226752-31.55774 0.157589-0.122797 0.310062-0.24457 0.468674-0.36532 3.77907-2.864234 8.641821-6.197142 14.870686-10.188037 10.237155-6.564509 19.940145-9.760295 29.66053-9.760295 29.414937 0 40.703027 17.898649 44.188408 25.592889 4.426823 9.774621 6.664793 21.149693 6.664793 33.823339v279.661398c0 14.026458-3.272533 26.817786-9.730618 38.018895-8.930393 15.488763-24.492834 24.370037-42.691311 24.370037z m-9.027608-337.272513c-6.894014 5.499248-16.008602 14.236236-27.106358 25.973558-11.363815 12.025894-22.314215 25.162076-32.534997 39.037085-10.019191 13.5936-18.797112 27.711132-26.083052 41.968857-5.853311 11.458983-8.951883 21.579481-8.951882 29.260417 0 7.835456 2.684132 17.119913 7.971555 27.593452 6.67605 13.226233 14.58723 26.376741 23.512507 39.09439 9.169847 13.063527 18.262946 24.840758 27.02961 35.012421 9.093099 10.553357 15.807011 18.116613 19.967773 22.489201 0.245593 0.260943 0.490164 0.528026 0.729618 0.800225 0.011256 0.011256 1.192152 1.285273 4.982478 4.285607a502.57228 502.57228 0 0 0 12.148691 9.317203 93.944626 93.944626 0 0 0 3.910053 2.777253c0.075725-0.865717 0.11461-1.775436 0.11461-2.728135V358.942045c-2.712785 1.821485-4.519943 3.120061-5.690606 3.999081z" p-id="2047"></path><path d="M604.929506 735.357044H245.267053c-52.952003 0-96.03217-43.077098-96.03217-96.03217V351.247806c0-52.952003 43.080168-96.03217 96.03217-96.03217h359.662453c52.955072 0 96.03217 43.080168 96.03217 96.03217v71.993684a27.885094 27.885094 0 0 1-3.539616 13.5936l-1.24741 2.224667c-1.644453 2.937912-3.294023 5.875824-4.841262 8.837273-10.335393 19.785625-15.573697 36.984333-15.573697 51.125401 0 14.185071 4.710278 30.509874 14.004969 48.52211 0 0.00307 0.005117 0.005117 0.005116 0.008186a456.739419 456.739419 0 0 0 7.628748 14.114463 27.878954 27.878954 0 0 1 3.561105 13.637601v64.019059c0.002047 52.956096-43.075051 96.033193-96.030123 96.033194zM245.267053 310.974567c-22.205745 0-40.273239 18.067494-40.273239 40.273239v288.077068c0 22.205745 18.067494 40.273239 40.273239 40.273238h359.662453c22.205745 0 40.273239-18.067494 40.273239-40.273238v-56.821124a436.548564 436.548564 0 0 1-4.987595-9.392927c-13.411451-25.993001-20.212344-50.92074-20.212344-74.087369 0-23.220864 7.367805-49.107441 21.905916-76.93523a296.727075 296.727075 0 0 1 3.294023-6.104021v-64.735374c0-22.205745-18.067494-40.273239-40.273239-40.273238l-359.662453-0.001024z" p-id="2048"></path></svg>