<?xml version="1.0" encoding="UTF-8" standalone="no"?>
<svg
   xmlns:dc="http://purl.org/dc/elements/1.1/"
   xmlns:cc="http://creativecommons.org/ns#"
   xmlns:rdf="http://www.w3.org/1999/02/22-rdf-syntax-ns#"
   xmlns:svg="http://www.w3.org/2000/svg"
   xmlns="http://www.w3.org/2000/svg"
   xmlns:sodipodi="http://sodipodi.sourceforge.net/DTD/sodipodi-0.dtd"
   xmlns:inkscape="http://www.inkscape.org/namespaces/inkscape"
   class="icon"
   width="200px"
   height="200.00px"
   viewBox="0 0 1024 1024"
   version="1.1"
   id="svg6"
   sodipodi:docname="markdown.svg"
   inkscape:version="0.92.3 (2405546, 2018-03-11)">
  <metadata
     id="metadata12">
    <rdf:RDF>
      <cc:Work
         rdf:about="">
        <dc:format>image/svg+xml</dc:format>
        <dc:type
           rdf:resource="http://purl.org/dc/dcmitype/StillImage" />
      </cc:Work>
    </rdf:RDF>
  </metadata>
  <defs
     id="defs10" />
  <sodipodi:namedview
     pagecolor="#ffffff"
     bordercolor="#666666"
     borderopacity="1"
     objecttolerance="10"
     gridtolerance="10"
     guidetolerance="10"
     inkscape:pageopacity="0"
     inkscape:pageshadow="2"
     inkscape:window-width="1366"
     inkscape:window-height="741"
     id="namedview8"
     showgrid="false"
     inkscape:zoom="2.855"
     inkscape:cx="100"
     inkscape:cy="100"
     inkscape:window-x="0"
     inkscape:window-y="27"
     inkscape:window-maximized="1"
     inkscape:current-layer="svg6" />
  <path
     d="M 743.22581,16.516129 H 198.19355 c -44.59355,0 -82.58065,37.987097 -82.58065,82.580645 V 924.90323 c 0,46.24516 36.33549,82.58067 82.58065,82.58067 h 644.12903 c 46.24516,0 82.58065,-36.33551 82.58065,-82.58067 V 198.19355 Z"
     id="path2"
     inkscape:connector-curvature="0"
     style="fill:#700098"
     sodipodi:nodetypes="csssssscc" />
  <path
     d="M746.529032 14.864516H743.225806v132.129032c0 16.516129 8.258065 52.851613 57.806452 52.851613h127.174194L746.529032 14.864516z"
     fill="#C8D3DC"
     id="path4"
     style="fill:#4c0064" />
  <g
     aria-label="M"
     style="font-style:normal;font-weight:normal;font-size:471.2048645px;line-height:1.25;font-family:sans-serif;letter-spacing:0px;word-spacing:0px;fill:#ffffff;fill-opacity:1;stroke:none;stroke-width:11.78012085"
     id="text15">
    <path
       d="m 735.84628,372.8489 q 0,2.76097 -0.92032,4.60161 -0.92033,1.84065 -2.99105,4.60161 -1.84064,2.76097 -3.22113,4.83169 -1.38048,2.07073 -1.38048,3.91137 0,0.46016 -0.46016,1.61056 -0.23008,1.15041 -0.69024,3.45121 -1.15041,4.14145 -2.07073,6.90242 -0.92032,2.53088 -1.1504,3.68128 -2.30081,8.05282 -3.22113,15.64548 -0.92032,7.59266 -0.92032,16.79588 0,17.02595 -1.38048,34.51207 -0.46016,8.74306 -1.61057,18.40644 -0.92032,9.4333 -2.07072,20.017 -1.1504,10.58371 -2.30081,20.24709 -0.92032,9.66338 -2.07072,18.63652 -1.61056,16.10563 -2.53089,33.59175 -0.69024,17.25604 -0.69024,36.12264 0,12.65443 0.46016,32.44135 0.46017,19.55684 0.92033,45.32586 2.76096,2.76096 8.51297,6.90241 6.44226,4.14145 9.20322,7.1325 2.99105,2.76097 2.99105,7.59266 0,8.74305 -9.20322,17.02595 -9.4333,8.2829 -18.17636,8.2829 -23.23813,0 -31.06087,-31.29095 -8.05281,-31.75111 -8.05281,-64.19246 0,-10.35362 1.38048,-20.70724 1.38048,-10.35362 2.53089,-20.93733 0.69024,-7.36257 2.07072,-21.1674 1.61056,-14.03491 3.91137,-34.74216 2.3008,-20.70724 3.45121,-31.52103 1.1504,-11.04386 1.38048,-12.88451 0.23008,-1.61056 0.46016,-5.29185 0.46016,-3.68128 1.1504,-9.66338 1.61057,-11.96418 2.30081,-20.70724 0.69024,-8.74306 0.69024,-13.80483 0.23008,-1.61057 0.23008,-2.99105 0.23008,-1.38048 0.23008,-3.68129 0,-1.61056 -2.30081,-5.98209 -3.91136,5.29185 -9.20322,12.42435 -5.29185,7.13249 -11.96418,16.10563 -13.57475,17.94628 -22.08773,29.68039 -4.37153,5.75201 -8.74306,11.50402 -4.14145,5.75201 -8.51298,11.50403 -4.37153,5.75201 -10.12354,13.34467 -5.52193,7.36257 -12.42435,17.02595 -14.95523,20.70725 -29.68038,42.10473 -0.69024,1.15041 -2.30081,3.45121 -1.61056,2.30081 -4.14144,5.98209 -5.06178,7.59266 -5.75202,8.2829 -16.10563,21.16741 -29.68038,25.07878 -22.08773,-6.44226 -30.14055,-20.24709 -2.07072,-3.68129 -3.68129,-6.44225 -1.38048,-2.76097 -2.76096,-5.06177 -1.38048,-2.53089 -2.76097,-4.83169 -1.38048,-2.53089 -2.99104,-5.29185 -4.60161,-8.05282 -8.2829,-14.72516 -3.68129,-6.67233 -6.67234,-11.96418 -5.75201,-10.58371 -11.27394,-22.54789 -5.52193,-12.19427 -10.12354,-25.30886 -2.76097,-8.74306 -4.60161,-14.26499 -1.84065,-5.75201 -2.76097,-8.2829 -0.92032,-2.76096 -2.3008,-7.36257 -1.38049,-4.60161 -3.22113,-11.04387 -1.84064,-6.44225 -4.14145,-13.11458 -2.07072,-6.67234 -4.37153,-13.57475 -4.60161,-14.49507 -5.06177,-15.64548 -1.61056,6.44226 -4.60161,16.33572 -2.76097,9.89346 -5.98209,21.1674 -2.99105,11.04387 -5.9821,22.31781 -2.99104,11.27395 -5.06177,20.24709 -2.3008,9.20322 -4.37153,17.48611 -1.84064,8.05282 -3.68128,15.4154 -3.91137,14.26499 -11.73411,44.8657 -5.06177,19.32676 -5.06177,38.19336 0,3.91137 0.69024,10.5837 0.69024,6.44226 2.30081,15.87556 1.61056,9.20322 2.3008,16.56579 0.69024,7.36258 0.69024,12.88451 0,5.98209 -6.21217,14.95523 -6.21218,8.74306 -12.19427,8.74306 -2.07072,0 -6.21217,-0.46016 -4.14145,-0.46016 -6.44226,-0.46016 -12.8845,0 -18.63652,-15.41539 -5.75201,-15.18532 -5.75201,-31.75111 0,-4.60161 2.30081,-13.57475 1.1504,-4.60161 2.76096,-11.04387 1.61057,-6.67233 3.68129,-14.72515 2.30081,-8.05282 3.45121,-12.65443 1.1504,-4.60161 1.38048,-5.52193 5.06177,-19.55684 9.20322,-34.97223 4.14145,-15.64548 7.36258,-27.60966 3.22112,-11.96419 6.67233,-24.8487 3.45121,-13.11459 7.36258,-27.60966 4.60161,-16.56579 7.82273,-27.83974 3.45121,-11.50402 5.52194,-22.54789 1.84064,-12.65442 2.76096,-17.02595 1.1504,-5.75202 3.22113,-11.73411 2.07072,-5.98209 4.60161,-11.96419 5.06177,-12.42434 12.88451,-12.42434 17.02595,0 27.1495,3.22112 9.89346,2.99105 16.56579,14.95524 3.22113,5.29185 5.52193,10.81378 2.30081,5.29185 3.91137,11.04386 1.61057,5.52194 3.45121,12.88451 1.84064,7.1325 3.68129,16.33572 0.92032,4.83169 2.76096,9.4333 1.84065,4.60161 3.91137,10.35362 17.7162,54.06892 53.1486,107.44759 1.1504,-1.1504 7.36257,-5.52193 2.99105,-2.3008 5.06178,-4.14145 2.3008,-1.84064 3.68128,-3.68128 3.22113,-3.91137 6.67234,-8.74306 3.45121,-5.06177 6.67233,-11.04387 6.90242,-11.96418 12.88451,-22.31781 6.21217,-10.35362 13.80483,-18.63652 3.68129,-3.91137 8.51298,-9.89346 5.06177,-6.21217 11.50402,-14.49507 6.44226,-8.2829 11.27395,-14.49507 5.06177,-6.21217 8.2829,-10.12354 3.91137,-4.37153 7.13249,-8.51298 3.45121,-4.14145 6.44226,-8.05282 2.99104,-3.91137 6.67233,-8.97314 3.91137,-5.06177 8.51298,-11.27394 2.07072,-2.53089 6.67233,-8.05282 2.30081,-2.76097 3.91137,-4.83169 1.84065,-2.30081 2.99105,-3.91137 4.14145,-5.75201 8.97314,-13.11459 5.06177,-7.36257 10.81378,-17.02596 5.98209,-9.66338 10.5837,-16.56579 4.60161,-7.1325 7.82274,-11.73411 1.38048,-2.07072 4.83169,-2.07072 3.22113,-0.23008 8.51298,1.84064 5.29185,2.07073 10.12354,5.29185 5.06177,2.99105 8.51298,6.44226 3.45121,3.45121 2.99105,6.21217 z"
       style="font-style:normal;font-variant:normal;font-weight:normal;font-stretch:normal;font-family:'Segoe Script';-inkscape-font-specification:'Segoe Script';fill:#ffffff;stroke-width:11.78012085"
       id="path17" />
  </g>
</svg>
