<?xml version="1.0" encoding="UTF-8" standalone="no"?>
<svg
   xmlns:dc="http://purl.org/dc/elements/1.1/"
   xmlns:cc="http://creativecommons.org/ns#"
   xmlns:rdf="http://www.w3.org/1999/02/22-rdf-syntax-ns#"
   xmlns:svg="http://www.w3.org/2000/svg"
   xmlns="http://www.w3.org/2000/svg"
   xmlns:sodipodi="http://sodipodi.sourceforge.net/DTD/sodipodi-0.dtd"
   xmlns:inkscape="http://www.inkscape.org/namespaces/inkscape"
   class="icon"
   width="200px"
   height="200.00px"
   viewBox="0 0 1024 1024"
   version="1.1"
   id="svg6"
   sodipodi:docname="torrent.svg"
   inkscape:version="0.92.3 (2405546, 2018-03-11)">
  <metadata
     id="metadata12">
    <rdf:RDF>
      <cc:Work
         rdf:about="">
        <dc:format>image/svg+xml</dc:format>
        <dc:type
           rdf:resource="http://purl.org/dc/dcmitype/StillImage" />
      </cc:Work>
    </rdf:RDF>
  </metadata>
  <defs
     id="defs10" />
  <sodipodi:namedview
     pagecolor="#ffffff"
     bordercolor="#666666"
     borderopacity="1"
     objecttolerance="10"
     gridtolerance="10"
     guidetolerance="10"
     inkscape:pageopacity="0"
     inkscape:pageshadow="2"
     inkscape:window-width="1366"
     inkscape:window-height="741"
     id="namedview8"
     showgrid="false"
     inkscape:zoom="2.9501666"
     inkscape:cx="99.67742"
     inkscape:cy="99.999997"
     inkscape:window-x="0"
     inkscape:window-y="27"
     inkscape:window-maximized="1"
     inkscape:current-layer="svg6" />
  <path
     d="m 739.92258,23.122581 -6.60645,-6.606452 H 188.28387 c -46.24516,0 -82.58064,36.335484 -82.58064,82.580645 V 924.90323 c 0,46.24516 36.33548,82.58067 82.58064,82.58067 H 832.4129 c 46.24516,0 82.58065,-36.33551 82.58065,-82.58067 V 201.49677 Z"
     id="path2"
     inkscape:connector-curvature="0"
     style="fill:#8ae234"
     sodipodi:nodetypes="ccsssssscc" />
  <path
     d="M733.316129 16.516129h-3.303226v132.129032c0 16.516129 8.258065 52.851613 57.806452 52.851613h127.174193L733.316129 16.516129z"
     fill="#A6CBFF"
     id="path4"
     style="fill:#73d216" />
  <g
     aria-label="torrent"
     style="font-style:normal;font-weight:normal;font-size:170.88035583px;line-height:1.25;font-family:sans-serif;letter-spacing:0px;word-spacing:0px;fill:#ffffff;fill-opacity:1;stroke:none;stroke-width:4.2720089"
     id="text18">
    <path
       d="m 298.37441,518.83339 q 0,3.08719 -1.66876,4.75595 -1.66875,1.58531 -3.83813,2.83688 -2.75344,1.25156 -6.17439,2.25281 -3.33751,1.00126 -6.92533,1.83563 -3.50438,0.75094 -7.0922,1.33501 -3.58782,0.50062 -6.84189,0.83437 -3.50438,0.33375 -7.42595,0.6675 -3.92157,0.33376 -7.59283,0.75094 -3.67126,0.33375 -6.84189,0.83438 -3.08719,0.50063 -5.00626,1.25157 -1.75219,7.59282 -3.75469,14.51815 -1.91907,6.84189 -3.25407,13.68378 -0.33375,1.58532 -0.91782,4.75595 -0.50062,3.17063 -1.00125,6.67501 -0.50062,3.42095 -0.91781,6.50814 -0.33375,3.00376 -0.33375,4.33876 0,3.42094 1.08469,5.17313 1.08469,1.66876 2.33625,2.67001 1.335,1.08469 2.41969,2.0025 1.08469,0.91782 1.08469,2.75345 0,1.16812 -1.16812,2.25281 -1.08469,1.08469 -2.67001,1.91907 -1.58532,0.83438 -3.42094,1.25157 -1.7522,0.50062 -3.0872,0.50062 -2.41969,0 -4.33876,-1.335 -1.91906,-1.335 -3.25407,-3.50438 -1.335,-2.08595 -2.08594,-4.83939 -0.75094,-2.75344 -0.75094,-5.67376 0,-3.83813 0.6675,-8.17689 0.6675,-4.4222 1.66876,-9.01127 1.00125,-4.58907 2.08594,-9.34502 1.16813,-4.83939 2.16938,-9.59533 0.41719,-2.00251 0.83438,-4.08845 0.50062,-2.16938 0.83437,-4.00501 0.41719,-1.91906 0.6675,-3.17063 0.25032,-1.25156 0.25032,-1.50188 0,-1.335 -1.00126,-2.0025 -0.91781,-0.75094 -2.25281,-0.75094 -1.00126,0 -3.00376,0.16688 -2.0025,0.16687 -4.25532,0.41718 -2.16938,0.25032 -4.17188,0.41719 -2.00251,0.16688 -2.92032,0.16688 -3.00376,0 -5.0897,-0.33375 -2.08594,-0.41719 -3.42095,-1.41844 -1.25156,-1.00126 -1.83562,-2.75345 -0.66751,-1.83563 -0.66751,-4.67251 0,-1.16812 1.08469,-1.83563 1.08469,-0.6675 2.58657,-0.91781 1.58532,-0.33375 3.33751,-0.33375 1.75219,-0.0834 3.08719,-0.0834 1.08469,0 3.50438,-0.16687 2.50314,-0.25032 5.17314,-0.50063 2.75344,-0.25031 5.17314,-0.41719 2.50313,-0.25031 3.58782,-0.25031 0.50062,0 1.16812,-0.0834 0.66751,-0.0834 1.33501,-0.41719 0.75094,-0.41719 1.335,-1.25156 0.58406,-0.91782 1.00125,-2.50313 0.58407,-2.58657 1.41844,-6.00752 0.83438,-3.50438 1.66876,-7.0922 0.91781,-3.67126 1.75219,-7.00876 0.83437,-3.42095 1.41844,-5.84064 0.75094,-2.33625 1.25156,-5.00626 0.58407,-2.67001 1.00125,-5.34001 0.50063,-2.67001 1.08469,-5.17314 0.58407,-2.50313 1.50188,-4.58907 1.83563,-4.33876 5.92408,-4.33876 6.17438,0 6.17438,6.84189 0,4.25532 -1.83562,9.76221 -4.00501,12.68253 -5.92408,20.94286 -1.91907,8.17689 -1.91907,11.01377 0,3.08719 3.0872,3.08719 3.75469,0 7.00876,-0.0834 3.33751,-0.16687 6.67502,-0.41718 3.42094,-0.33375 7.17564,-0.75094 3.75469,-0.41719 8.4272,-0.91782 3.33751,-0.41719 6.34127,-1.00125 3.08719,-0.58406 5.67376,-1.08469 2.58657,-0.58406 4.58907,-1.08469 2.0025,-0.50062 3.33751,-0.6675 0.91781,-0.0834 1.75219,-0.25031 0.91781,-0.16688 1.50188,0 0.6675,0.0834 1.00125,0.6675 0.41719,0.50062 0.41719,1.75219 z"
       style="font-style:normal;font-variant:normal;font-weight:normal;font-stretch:normal;font-family:'Segoe Script';-inkscape-font-specification:'Segoe Script';fill:#ffffff;stroke-width:4.2720089"
       id="path35" />
    <path
       d="m 389.48835,518.74995 q 0,1.41844 -1.00126,3.0872 -1.00125,1.66875 -2.58656,3.42094 -1.58532,1.66875 -3.58782,3.33751 -2.00251,1.58531 -4.00501,3.00375 -2.00251,1.33501 -3.83813,2.4197 -1.7522,1.00125 -2.92032,1.50187 -2.16938,0.91782 -5.7572,1.66876 -3.50439,0.6675 -7.34252,1.16813 -3.83813,0.50062 -7.50939,0.83437 -3.67126,0.25031 -6.17439,0.25031 -1.00125,0 -2.75344,-0.33375 -1.75219,-0.33375 -3.58782,-0.83437 -1.83563,-0.50063 -3.50438,-1.08469 -1.58532,-0.6675 -2.33626,-1.33501 0.75094,3.17064 1.33501,6.42471 0.58406,3.17063 0.58406,6.59157 0,1.50188 -0.41719,3.67126 -0.33375,2.16938 -1.00125,4.4222 -0.58406,2.16938 -1.335,4.25532 -0.75094,2.0025 -1.58532,3.3375 -2.16938,3.67126 -4.50563,6.67502 -2.25282,3.00375 -5.17314,5.59032 -2.83688,2.50313 -6.4247,4.75595 -3.58782,2.25282 -8.26033,4.33876 -5.00626,2.16938 -10.09596,3.08719 -5.00626,0.83438 -10.42971,0.83438 -3.42094,0 -6.09095,-2.0025 -2.67,-2.00251 -4.50563,-5.34002 -1.83563,-3.42094 -2.83688,-7.84314 -0.91782,-4.42219 -0.91782,-9.26158 0,-1.25156 0.16688,-3.08719 0.25031,-1.83563 0.58406,-3.7547 0.41719,-1.91906 0.83438,-3.67126 0.41719,-1.75219 0.83437,-3.00375 1.16813,-3.50438 3.33751,-8.01002 2.16938,-4.50563 5.0897,-9.17814 2.92032,-4.75595 6.50814,-9.26158 3.58782,-4.58908 7.50939,-8.1769 3.92157,-3.58782 8.17689,-5.7572 4.25532,-2.16938 8.51064,-2.16938 1.41844,0 2.25282,0.41719 0.91782,0.41719 1.50188,1.08469 0.6675,0.6675 1.16813,1.41844 0.50062,0.75094 1.16812,1.50188 0.25032,0.41719 0.75094,0.41719 0.6675,0 1.66876,-0.33375 1.00125,-0.33375 2.25281,-0.33375 1.58532,0 3.92157,2.08594 2.33626,2.0025 4.83939,4.50563 2.58657,2.4197 5.0897,4.50564 2.58657,2.0025 4.58907,2.0025 2.25282,0 4.83938,-0.0834 2.58657,-0.0834 5.25658,-0.25032 2.67,-0.25031 5.25657,-0.58406 2.58657,-0.33375 4.75595,-0.75094 0.58406,-0.16688 2.75344,-0.75094 2.16938,-0.58406 5.00626,-1.335 2.92032,-0.83438 6.09095,-1.75219 3.25407,-0.91782 6.00752,-1.66876 2.75344,-0.83437 4.50563,-1.335 1.83563,-0.50063 2.0025,-0.50063 0.50063,0 0.91782,0.25032 0.41719,0.25031 0.41719,0.91781 z m -65.08139,13.35003 q -0.50063,-1.66875 -2.0025,-3.25407 -1.41844,-1.58532 -3.33751,-2.83688 -1.83563,-1.25157 -3.92157,-2.0025 -2.08594,-0.83438 -3.92157,-0.83438 -1.50188,0 -2.92032,0.50062 -1.41844,0.50063 -2.83688,1.33501 -1.335,0.75094 -2.58657,1.75219 -1.25156,0.91781 -2.33625,1.75219 -3.25407,2.75344 -6.25783,7.7597 -2.92032,4.92283 -5.17313,10.68003 -2.16938,5.67376 -3.50439,11.34752 -1.335,5.67376 -1.335,9.84564 0,1.83563 0.58406,3.58782 0.66751,1.66876 1.83563,3.00376 1.16813,1.25157 2.75345,2.08594 1.58531,0.75094 3.50438,0.75094 5.00626,0 9.26158,-1.75219 4.25532,-1.83563 7.67627,-4.92282 3.50438,-3.17063 6.17438,-7.50939 2.67001,-4.33876 4.50564,-9.34502 1.83563,-5.0897 2.75344,-10.68002 1.00125,-5.59033 1.08469,-11.26409 z"
       style="font-style:normal;font-variant:normal;font-weight:normal;font-stretch:normal;font-family:'Segoe Script';-inkscape-font-specification:'Segoe Script';fill:#ffffff;stroke-width:4.2720089"
       id="path37" />
    <path
       d="m 454.15254,521.50339 q -0.0834,2.33626 -0.91781,3.92158 -0.75094,1.58531 -1.91907,2.58656 -1.16813,1.00126 -2.58657,1.50188 -1.41844,0.41719 -2.75344,0.41719 -1.16813,0 -2.83688,-0.41719 -1.58532,-0.41719 -3.25407,-0.50062 -3.25407,0 -7.84314,1.83562 -4.50563,1.7522 -9.26158,4.58908 -4.75595,2.83688 -9.26158,6.34126 -4.50564,3.50438 -7.59283,6.92533 -1.66876,1.91906 -3.58782,4.25532 -1.83563,2.33625 -3.58782,4.92282 -1.75219,2.58657 -3.17063,5.25657 -1.33501,2.67001 -1.91907,5.17314 -0.33375,1.335 -0.25031,3.33751 0.0834,1.91906 0.33375,4.25532 0.25031,2.25282 0.50062,4.75595 0.33375,2.41969 0.33375,4.67251 0,1.335 -0.0834,2.58656 0,1.16813 -0.25032,2.25282 -0.16687,0.75094 -0.91781,1.66875 -0.75094,0.83438 -1.83563,1.58532 -1.08469,0.75094 -2.41969,1.25156 -1.25157,0.58407 -2.41969,0.58407 -1.91907,-0.0834 -3.25407,-2.00251 -1.33501,-1.91906 -2.16938,-5.25657 -0.83438,-3.33751 -1.16813,-7.84314 -0.33375,-4.58907 -0.33375,-9.92908 0,-1.58532 0.0834,-4.67251 0.0834,-3.0872 0.16687,-6.25783 0.16688,-3.25407 0.25031,-5.84064 0.16688,-2.58656 0.16688,-3.17063 0.0834,-1.41844 0.16687,-3.83813 0.16688,-2.41969 0.33376,-5.25657 0.25031,-2.92032 0.50062,-5.92408 0.33375,-3.00376 0.6675,-5.50689 0.16688,-1.00125 0.33375,-2.92031 0.16688,-1.91907 0.33375,-3.92157 0.25032,-2.08595 0.50063,-3.92158 0.25031,-1.91906 0.50063,-2.83688 0.25031,-1.00125 1.08469,-2.33625 0.91781,-1.335 2.16938,-2.58657 1.25156,-1.25156 2.75344,-2.08594 1.58531,-0.91782 3.25407,-0.91782 1.75219,0.0834 2.83688,0.75094 1.16813,0.58407 1.83563,1.50188 0.6675,0.83438 0.91781,1.83563 0.25032,0.91782 0.25032,1.66875 0,0.41719 -0.33376,1.66876 -0.25031,1.16813 -0.75093,2.83688 -0.50063,1.58531 -1.08469,3.50438 -0.50063,1.83563 -1.00126,3.50438 -0.41718,1.66876 -0.75094,3.00376 -0.33375,1.335 -0.33375,1.83563 0,0.6675 -0.25031,2.58657 -0.16687,1.83563 -0.41719,4.25532 -0.16687,2.41969 -0.41719,5.0897 -0.16687,2.58656 -0.16687,4.58907 0,0.6675 0,1.25156 0,0.58407 0.0834,1.08469 3.08719,-3.83813 6.75845,-8.01001 3.75469,-4.17189 7.92658,-8.1769 4.17188,-4.08844 8.67752,-7.7597 4.50563,-3.67126 9.0947,-6.4247 4.67251,-2.83688 9.26158,-4.4222 4.67251,-1.66875 9.09471,-1.66875 2.50313,0.0834 4.33876,1.08469 1.91907,1.00125 3.17063,2.41969 1.25157,1.335 1.83563,2.75344 0.58406,1.41845 0.58406,2.4197 z"
       style="font-style:normal;font-variant:normal;font-weight:normal;font-stretch:normal;font-family:'Segoe Script';-inkscape-font-specification:'Segoe Script';fill:#ffffff;stroke-width:4.2720089"
       id="path39" />
    <path
       d="m 541.17804,527.67778 q 0,1.25157 -1.16813,2.16938 -1.08469,0.83438 -2.92032,1.58532 -1.83563,0.75094 -4.17188,1.41844 -2.25282,0.58406 -4.50564,1.335 -5.42345,1.66875 -11.18065,4.83939 -5.67376,3.08719 -11.84815,9.34502 -4.83938,4.92282 -8.34376,10.34627 -3.42095,5.34001 -5.92408,11.34752 -2.50313,6.00751 -4.25532,12.76597 -1.75219,6.67501 -3.00376,14.26784 -0.91781,1.00125 -1.58531,1.75219 -0.6675,0.75094 -1.41844,1.25156 -0.75094,0.50063 -1.75219,0.75094 -0.91782,0.33375 -2.4197,0.33375 -2.16938,0 -3.42094,-1.91906 -1.16813,-1.83563 -1.75219,-4.4222 -0.58407,-2.50313 -0.75094,-5.0897 -0.0834,-2.58657 -0.0834,-4.08844 0,-1.58532 0.0834,-4.00501 0.0834,-2.50313 0.16687,-5.42345 0.16688,-2.92032 0.33375,-6.00751 0.16688,-3.17064 0.25032,-6.09095 0.16687,-2.92032 0.25031,-5.34001 0.0834,-2.50314 0.0834,-4.08845 0,-3.83813 -0.16688,-6.34126 -0.0834,-2.50313 -0.25031,-4.25533 -0.16688,-1.75219 -0.41719,-3.08719 -0.25031,-1.41844 -0.41719,-3.00376 -0.16687,-1.66875 -0.33375,-3.83813 -0.0834,-2.25282 -0.0834,-5.7572 0,-1.75219 0.75093,-3.33751 0.75094,-1.66875 1.91907,-2.83688 1.25157,-1.25156 2.75344,-1.91906 1.58532,-0.75094 3.0872,-0.75094 1.75219,0 3.25407,0.75094 1.50188,0.75094 2.58656,1.91906 1.08469,1.16813 1.66876,2.75345 0.58406,1.50188 0.58406,3.08719 0,3.17063 -0.41719,7.59283 -0.41718,4.33876 -0.91781,8.92783 -0.41719,4.50563 -0.75094,8.76096 -0.33375,4.17188 -0.25031,7.00876 3.58782,-6.84189 8.26033,-13.85065 4.75594,-7.00877 10.51314,-12.68253 5.84064,-5.7572 12.59909,-9.34502 6.75845,-3.67126 14.43472,-3.67126 1.50188,0 3.42094,0.33375 1.91907,0.33375 3.58782,1.16813 1.66876,0.83438 2.75345,2.16938 1.16813,1.25157 1.16813,3.17063 z"
       style="font-style:normal;font-variant:normal;font-weight:normal;font-stretch:normal;font-family:'Segoe Script';-inkscape-font-specification:'Segoe Script';fill:#ffffff;stroke-width:4.2720089"
       id="path41" />
    <path
       d="m 647.81138,529.42997 q 0,1.33501 -1.83563,4.4222 -3.33751,5.34001 -8.34377,11.5144 -4.92282,6.17439 -11.01377,12.43221 -6.00751,6.17439 -12.8494,11.93159 -6.75845,5.7572 -13.76722,10.1794 -7.00876,4.33876 -13.85065,7.00876 -6.84189,2.67001 -13.01628,2.67001 h -0.58406 q -14.26784,0 -21.36005,-8.1769 -7.0922,-8.17689 -7.0922,-22.77848 0,-5.84064 0.91782,-12.34878 0.91781,-6.50813 3.17063,-13.18315 2.33625,-6.75845 6.25782,-13.43346 4.00501,-6.75846 10.09596,-13.01628 4.58907,-4.58907 9.67877,-7.00877 5.0897,-2.50313 9.59533,-2.50313 0.6675,0 1.75219,0.33375 1.08469,0.33376 2.16938,0.91782 1.16813,0.50063 2.16938,1.335 1.08469,0.75094 1.83563,1.66876 2.33626,3.00375 3.42095,5.7572 1.08469,2.75344 1.08469,6.4247 0,4.83938 -1.33501,8.84439 -1.335,3.92157 -3.83813,7.67627 -2.50313,3.75469 -6.17439,7.59282 -3.67125,3.7547 -8.4272,8.1769 -1.58532,1.50187 -3.7547,3.3375 -2.16938,1.83563 -4.67251,3.83814 -2.50313,2.0025 -5.17313,4.17188 -2.67001,2.16938 -5.25658,4.25532 0.66751,14.93534 16.6041,14.93534 8.84439,0 18.85692,-4.67251 4.92282,-2.33625 9.17814,-5.34001 4.25532,-3.08719 8.34377,-6.25782 2.0025,-1.58532 4.42219,-3.7547 2.4197,-2.16938 4.92283,-4.58907 2.58656,-2.41969 5.08969,-4.83938 2.58657,-2.4197 4.83939,-4.58908 1.41844,-1.41844 3.00376,-3.00375 1.66875,-1.58532 3.50438,-3.42095 l 4.50563,-4.50563 q 4.08845,-3.58782 5.92408,-3.58782 1.00125,0 1.00125,1.58531 z m -64.24701,-12.51565 q 0,-2.50313 -1.335,-4.33876 -1.33501,-1.91906 -3.25407,-1.91906 -1.41844,0 -3.67126,1.16812 -2.16938,1.16813 -4.67251,4.17189 -5.0897,6.17439 -8.67752,14.93534 -3.58782,8.67752 -5.00626,19.35754 5.25658,-4.25532 8.8444,-7.59283 3.67125,-3.3375 6.59157,-6.25782 2.00251,-2.00251 3.92157,-4.25532 2.00251,-2.25282 3.58782,-4.75595 1.66876,-2.50313 2.67001,-5.17314 1.00125,-2.67 1.00125,-5.34001 z"
       style="font-style:normal;font-variant:normal;font-weight:normal;font-stretch:normal;font-family:'Segoe Script';-inkscape-font-specification:'Segoe Script';fill:#ffffff;stroke-width:4.2720089"
       id="path43" />
    <path
       d="m 778.80854,532.68404 q 0,1.58532 -0.58406,3.25407 -0.50063,1.58532 -1.335,3.25407 -0.75094,1.58532 -1.7522,3.17063 -1.00125,1.50188 -1.91906,2.92032 -2.4197,3.7547 -5.67376,7.67627 -3.25407,3.83813 -7.00877,7.50939 -3.67126,3.67126 -7.59283,6.92533 -3.92157,3.25406 -7.67626,5.7572 -3.00376,2.0025 -5.7572,3.75469 -2.67001,1.75219 -5.42345,3.00376 -2.75344,1.25156 -5.7572,2.0025 -3.00376,0.75094 -6.59158,0.75094 -6.92532,0 -11.26408,-3.50438 -2.16938,-1.75219 -3.83814,-4.50564 -1.58531,-2.83688 -2.83688,-6.25782 -1.16812,-3.42095 -2.08594,-7.25908 -0.83438,-3.83813 -1.41844,-7.59283 -0.75094,-4.67251 -1.41844,-8.34377 -0.6675,-3.75469 -1.58532,-6.25782 -0.83437,-2.58657 -2.08594,-3.92157 -1.25156,-1.41844 -3.25407,-1.41844 -1.58531,0 -3.00375,0.33375 -1.41844,0.33375 -3.00376,1.335 -1.50188,1.00125 -3.33751,2.83688 -1.83563,1.83563 -4.33876,4.83939 -2.41969,3.00375 -5.59032,7.34251 -3.17063,4.33876 -7.42595,10.34627 -2.08594,2.92032 -4.92283,6.4247 -2.83688,3.50439 -5.84063,6.67502 -2.92032,3.17063 -5.7572,5.59032 -2.83688,2.4197 -5.00626,3.0872 -7.34252,-1.58532 -7.34252,-18.27285 0,-4.4222 1.00125,-13.43347 0.50063,-4.08845 1.16813,-8.51064 0.6675,-4.50564 1.66876,-8.92783 1.00125,-4.50564 2.25281,-8.67752 1.33501,-4.25532 3.0872,-7.84314 0.83437,-1.66876 1.75219,-2.58657 0.91781,-1.00125 1.83563,-1.41844 1.00125,-0.50063 2.0025,-0.58406 1.08469,-0.16688 2.16938,-0.16688 1.335,0 2.33626,1.83563 1.08468,1.83563 1.08468,5.0897 0,2.0025 -0.33375,3.75469 -0.33375,1.75219 -0.91781,3.58782 -0.58406,1.83563 -1.25157,4.00501 -0.6675,2.08594 -1.335,4.83939 -0.50062,2.25281 -1.16813,5.00626 -0.58406,2.75344 -1.16812,5.59032 -0.50063,2.83688 -0.91782,5.59032 -0.33375,2.67001 -0.33375,4.83939 0,1.50188 0.50063,3.08719 2.33625,-0.25031 7.67626,-7.00876 2.75345,-3.42095 6.00752,-7.50939 3.3375,-4.08845 7.17564,-9.01127 2.83688,-3.67126 5.59032,-6.84189 2.83688,-3.17063 5.84064,-5.50689 3.00375,-2.41969 6.34126,-3.75469 3.42095,-1.41844 7.50939,-1.41844 4.33876,0 7.17564,1.91906 2.92032,1.83563 4.67251,5.17314 1.75219,3.25407 2.67001,7.84314 1.00125,4.58907 1.58531,10.09596 0.50063,4.67251 0.91782,9.26158 0.50062,4.58907 1.83563,8.26033 1.335,3.58782 3.83813,5.84064 2.50313,2.25282 7.17564,2.25282 3.58782,0 7.50939,-1.66876 3.92157,-1.66875 8.26033,-4.58907 4.33876,-3.00376 8.92783,-7.00876 4.67251,-4.00501 9.59533,-8.76096 1.91907,-1.83563 4.17189,-4.58907 2.33625,-2.83688 4.50563,-5.42345 2.25282,-2.58657 4.17188,-4.4222 1.91907,-1.83563 3.0872,-1.83563 0.50062,0 1.58531,0.50063 1.16813,0.50063 1.16813,1.66875 z"
       style="font-style:normal;font-variant:normal;font-weight:normal;font-stretch:normal;font-family:'Segoe Script';-inkscape-font-specification:'Segoe Script';fill:#ffffff;stroke-width:4.2720089"
       id="path45" />
    <path
       d="m 839.30082,515.7462 q 0,2.41969 -1.00125,3.75469 -0.91781,1.335 -2.33625,2.0025 -1.33501,0.66751 -2.92032,0.83438 -1.58532,0.16688 -2.83688,0.25031 -7.00877,0.50063 -14.35128,1.16813 -7.25908,0.58407 -13.26659,1.25157 -6.00751,0.58406 -9.92909,1.16812 -3.83813,0.58407 -3.92157,0.91782 -0.58406,2.41969 -1.50187,6.00751 -0.91782,3.58782 -1.91907,7.75971 -1.00125,4.08844 -2.0025,8.51064 -1.00126,4.33876 -1.83563,8.34377 -0.75094,3.92157 -1.25157,7.17564 -0.50062,3.17063 -0.50062,5.08969 0,1.75219 0.25031,4.25532 0.25031,2.50313 1.16813,4.83939 1.00125,2.25282 2.83688,3.83813 1.83563,1.58532 5.00626,1.58532 1.75219,0 4.25532,-1.08469 2.58657,-1.08469 5.59032,-3.00376 3.00376,-1.91906 6.25783,-4.58907 3.25407,-2.67 6.4247,-5.84064 1.58532,-1.58531 3.42094,-3.00375 1.91907,-1.50188 4.08845,-1.50188 3.08719,0 3.08719,2.92032 0,1.50188 -0.58406,2.92032 -0.50063,1.335 -1.41844,2.75344 -0.83438,1.335 -2.0025,2.75344 -1.08469,1.33501 -2.33626,2.83688 -0.83438,1.08469 -2.50313,2.83688 -1.58532,1.66876 -3.92157,3.67126 -2.25282,2.00251 -5.0897,4.08845 -2.75344,2.0025 -5.92407,3.58782 -3.0872,1.66875 -6.50814,2.67 -3.33751,1.08469 -6.75845,1.08469 -4.92283,0 -8.26033,-1.41844 -3.25407,-1.41844 -5.34001,-3.75469 -2.08595,-2.33626 -3.25407,-5.25658 -1.08469,-3.00375 -1.58532,-6.00751 -0.50063,-3.00375 -0.58406,-5.84064 0,-2.92031 0,-5.00626 0,-2.58656 0.50062,-6.09095 0.58407,-3.58782 1.33501,-7.59282 0.75093,-4.00501 1.66875,-8.09346 1.00125,-4.17188 1.75219,-7.92658 0.75094,-3.75469 1.25157,-6.84189 0.58406,-3.17063 0.58406,-5.00626 0,-1.08469 -1.08469,-1.16812 -1.00125,-0.16688 -2.75344,0.0834 -1.75219,0.25032 -4.00501,0.50063 -2.16938,0.25031 -4.50564,-0.16688 -1.50187,-0.25031 -2.83688,-0.75094 -1.335,-0.50062 -2.41969,-1.335 -1.00125,-0.91781 -1.66875,-2.25282 -0.58407,-1.41844 -0.58407,-3.50438 0,-2.58657 1.33501,-3.58782 1.41844,-1.00125 3.3375,-1.00125 h 19.60786 q 0.50062,-0.25031 1.25156,-1.66875 0.83438,-1.50188 1.75219,-3.7547 1.00125,-2.33625 2.08594,-5.17313 1.08469,-2.92032 2.16938,-6.00752 1.16813,-3.17063 2.16938,-6.34126 1.08469,-3.17063 2.00251,-5.92407 1.41844,-4.50564 3.3375,-6.42471 1.91907,-1.91906 4.83939,-1.91906 1.91907,0 3.17063,0.75094 1.335,0.6675 2.08594,1.75219 0.75094,1.00125 1.08469,2.16938 0.33375,1.16812 0.33375,2.16938 0,0.33375 -0.58406,2.0025 -0.50063,1.58532 -1.335,4.00501 -0.83438,2.41969 -1.91907,5.42345 -1.08469,3.00375 -2.25282,6.00751 -1.08469,3.00376 -2.08594,5.84064 -1.00125,2.83688 -1.75219,4.92282 7.7597,-0.50063 13.09971,-1.00125 5.42345,-0.50063 9.26159,-0.83438 3.83813,-0.41719 6.50814,-0.6675 2.75344,-0.25031 5.17313,-0.25031 3.67126,0 5.84064,0.33375 2.25282,0.33375 3.42094,1.00125 1.25157,0.58406 1.66876,1.58532 0.41718,0.91781 0.41718,2.16938 z"
       style="font-style:normal;font-variant:normal;font-weight:normal;font-stretch:normal;font-family:'Segoe Script';-inkscape-font-specification:'Segoe Script';fill:#ffffff;stroke-width:4.2720089"
       id="path47" />
  </g>
</svg>
