<?xml version="1.0" encoding="UTF-8" standalone="no"?>
<svg
   xmlns:dc="http://purl.org/dc/elements/1.1/"
   xmlns:cc="http://creativecommons.org/ns#"
   xmlns:rdf="http://www.w3.org/1999/02/22-rdf-syntax-ns#"
   xmlns:svg="http://www.w3.org/2000/svg"
   xmlns="http://www.w3.org/2000/svg"
   xmlns:sodipodi="http://sodipodi.sourceforge.net/DTD/sodipodi-0.dtd"
   xmlns:inkscape="http://www.inkscape.org/namespaces/inkscape"
   class="icon"
   width="200px"
   height="200.00px"
   viewBox="0 0 1024 1024"
   version="1.1"
   id="svg6"
   sodipodi:docname="movie.svg"
   inkscape:version="0.92.3 (2405546, 2018-03-11)">
  <metadata
     id="metadata12">
    <rdf:RDF>
      <cc:Work
         rdf:about="">
        <dc:format>image/svg+xml</dc:format>
        <dc:type
           rdf:resource="http://purl.org/dc/dcmitype/StillImage" />
      </cc:Work>
    </rdf:RDF>
  </metadata>
  <defs
     id="defs10">
    <style
       id="style10"
       type="text/css" />
    <style
       id="style12"
       type="text/css" />
  </defs>
  <sodipodi:namedview
     pagecolor="#ffffff"
     bordercolor="#666666"
     borderopacity="1"
     objecttolerance="10"
     gridtolerance="10"
     guidetolerance="10"
     inkscape:pageopacity="0"
     inkscape:pageshadow="2"
     inkscape:window-width="1366"
     inkscape:window-height="741"
     id="namedview8"
     showgrid="false"
     inkscape:zoom="2.855"
     inkscape:cx="100"
     inkscape:cy="100"
     inkscape:window-x="0"
     inkscape:window-y="27"
     inkscape:window-maximized="1"
     inkscape:current-layer="svg6" />
  <path
     d="m 739.92258,23.122581 -6.60645,-6.606452 H 188.28387 c -46.24516,0 -82.58064,36.335484 -82.58064,82.580645 V 924.90323 c 0,46.24516 36.33548,82.58067 82.58064,82.58067 H 832.4129 c 46.24516,0 82.58065,-36.33551 82.58065,-82.58067 V 201.49677 Z"
     id="path2"
     inkscape:connector-curvature="0"
     style="fill:#6699ff"
     sodipodi:nodetypes="ccsssssscc" />
  <path
     d="M733.316129 16.516129h-3.303226v132.129032c0 16.516129 8.258065 52.851613 57.806452 52.851613h127.174193L733.316129 16.516129z"
     fill="#A6CBFF"
     id="path4"
     style="fill:#3366cc" />
  <g
     id="g29"
     transform="matrix(0.93029953,0,0,0.89977875,84.856755,92.457236)"
     style="fill:#ffffff">
    <g
       id="g32"
       transform="rotate(179.98378,474.34153,493.71892)"
       style="fill:#ffffff">
      <path
         style="fill:#ffffff;stroke-width:1.50947297"
         inkscape:connector-curvature="0"
         d="m 558.7593,329.74705 c 2.22111,-1.05563 5.64986,-2.61511 10.79687,-4.80256 v 334.91163 c 0,1.14411 -0.0738,2.23661 -0.21745,3.27625 a 178.24229,112.81941 0 0 1 -7.41861,-3.33524 953.53655,603.54607 0 0 1 -23.04986,-11.18915 c -7.19142,-3.60315 -9.43188,-5.13308 -9.45332,-5.14665 -0.45431,-0.32689 -0.91834,-0.64763 -1.3843,-0.961 -7.89428,-5.2511 -20.63266,-14.33393 -37.88511,-27.00759 -16.63309,-12.2153 -33.88554,-26.35874 -51.28361,-42.04692 -16.93402,-15.27279 -31.944,-31.06542 -44.61055,-46.949 -10.03191,-12.57781 -15.12454,-23.72764 -15.12454,-33.13736 0,-9.22413 5.87895,-21.37798 16.98451,-35.13923 13.8237,-17.12231 30.47816,-34.07625 49.48769,-50.40099 19.39203,-16.6627 40.16836,-32.43812 61.72905,-46.88019 21.05592,-14.09551 38.34914,-24.58788 51.42923,-31.192 z m 17.1282,405.03527 c 34.52817,0 64.05497,-10.66565 80.99877,-29.26632 12.253,-13.45157 18.462,-28.81285 18.462,-45.65742 V 324.0093 c 0,-15.21996 -4.2461,-28.88044 -12.6452,-40.61892 -6.6129,-9.24012 -28.0299,-30.73486 -83.8392,-30.73486 -18.44262,0 -36.85222,3.83787 -56.27529,11.72128 -11.81811,4.79272 -21.04427,8.79525 -28.21434,12.23495 -0.30093,0.14501 -0.59022,0.29126 -0.88921,0.43872 -17.31459,8.69079 -37.93559,21.08551 -63.04154,37.89813 -24.51766,16.41937 -48.07232,34.30481 -70.0058,53.14759 -22.39944,19.23232 -42.09045,39.30153 -58.52745,59.65462 -19.22505,23.82227 -28.57546,45.28383 -28.57546,65.61111 0,19.99302 8.91551,41.30097 26.47861,63.31921 14.94977,18.74814 32.60607,37.33653 52.4621,55.2441 19.40368,17.48605 38.82675,33.39544 57.72174,47.27835 18.23486,13.39134 31.58289,22.89936 40.75662,29.04019 5.46542,3.83787 12.6355,7.94486 22.44022,12.85555 a 1109.4881,702.25646 0 0 0 25.48648,12.38489 c 10.50758,4.96353 21.10834,9.29911 31.51105,12.90224 16.3244,5.64927 31.2742,8.39587 45.6959,8.39587 z"
         p-id="2047"
         id="path16-3" />
    </g>
  </g>
</svg>
