<?xml version="1.0" encoding="UTF-8" standalone="no"?>
<svg
   xmlns:dc="http://purl.org/dc/elements/1.1/"
   xmlns:cc="http://creativecommons.org/ns#"
   xmlns:rdf="http://www.w3.org/1999/02/22-rdf-syntax-ns#"
   xmlns:svg="http://www.w3.org/2000/svg"
   xmlns="http://www.w3.org/2000/svg"
   xmlns:sodipodi="http://sodipodi.sourceforge.net/DTD/sodipodi-0.dtd"
   xmlns:inkscape="http://www.inkscape.org/namespaces/inkscape"
   class="icon"
   width="200px"
   height="200.00px"
   viewBox="0 0 1024 1024"
   version="1.1"
   id="svg6"
   sodipodi:docname="word.svg"
   inkscape:version="0.92.3 (2405546, 2018-03-11)">
  <metadata
     id="metadata12">
    <rdf:RDF>
      <cc:Work
         rdf:about="">
        <dc:format>image/svg+xml</dc:format>
        <dc:type
           rdf:resource="http://purl.org/dc/dcmitype/StillImage" />
      </cc:Work>
    </rdf:RDF>
  </metadata>
  <defs
     id="defs10" />
  <sodipodi:namedview
     pagecolor="#ffffff"
     bordercolor="#666666"
     borderopacity="1"
     objecttolerance="10"
     gridtolerance="10"
     guidetolerance="10"
     inkscape:pageopacity="0"
     inkscape:pageshadow="2"
     inkscape:window-width="1366"
     inkscape:window-height="741"
     id="namedview8"
     showgrid="false"
     inkscape:snap-page="true"
     inkscape:zoom="2.855"
     inkscape:cx="100"
     inkscape:cy="100"
     inkscape:window-x="0"
     inkscape:window-y="27"
     inkscape:window-maximized="1"
     inkscape:current-layer="text16" />
  <path
     d="m 739.92258,23.122581 -6.60645,-6.606452 H 188.28387 c -46.24516,0 -82.58064,36.335484 -82.58064,82.580645 V 924.90323 c 0,46.24516 36.33548,82.58067 82.58064,82.58067 H 832.4129 c 46.24516,0 82.58065,-36.33551 82.58065,-82.58067 V 201.49677 Z"
     id="path2"
     inkscape:connector-curvature="0"
     style="fill:#4d97ff"
     sodipodi:nodetypes="ccsssssscc" />
  <path
     d="M733.316129 16.516129h-3.303226v132.129032c0 16.516129 8.258065 52.851613 57.806452 52.851613h127.174193L733.316129 16.516129z"
     fill="#A6CBFF"
     id="path4" />
  <g
     aria-label="W"
     style="font-style:normal;font-weight:normal;font-size:429.15167236px;line-height:1.25;font-family:sans-serif;letter-spacing:0px;word-spacing:0px;fill:#000000;fill-opacity:1;stroke:none;stroke-width:10.72879219"
     id="text16">
    <path
       d="m 714.46535,378.5459 q 0,11.31553 -2.72411,30.38428 -2.72411,18.8592 -7.75323,42.95707 -4.81957,23.88833 -10.26779,44.42391 -5.44821,20.53558 -10.68688,35.62294 -10.05824,30.59382 -19.48784,52.80577 -4.61003,11.31552 -10.47734,24.51697 -5.65776,12.99189 -12.5728,28.2888 -6.91504,15.29691 -12.36326,27.66017 -5.44821,12.36326 -9.4296,22.00241 -1.67637,3.98138 -7.75323,6.70549 -6.07685,2.72411 -9.4296,2.72411 -10.05824,0 -18.44011,-9.8487 -8.38187,-9.84869 -16.1351,-26.19334 -3.98139,-7.96277 -10.47733,-22.63104 -6.28641,-14.66827 -15.50646,-36.25158 -9.22006,-21.58332 -16.97329,-39.18524 -7.75322,-17.60192 -14.24917,-31.64155 -6.7055,9.84869 -24.51697,43.37617 -8.80096,16.97328 -17.39237,33.31792 -8.59142,16.1351 -16.97329,32.06065 -16.76374,31.8511 -30.80337,54.69169 -13.83008,22.8406 -18.44011,22.8406 -10.05824,0 -17.39237,-8.59142 -7.12459,-8.59142 -12.36326,-21.79286 -2.72411,-6.70549 -5.65776,-15.92555 -2.72411,-9.22005 -5.86731,-21.16422 -3.1432,-11.94416 -4.81957,-18.44011 -1.67638,-6.49595 -2.09547,-7.54368 -7.96278,-30.59382 -16.55419,-67.47404 -8.59142,-36.88022 -17.60193,-81.09458 -0.62864,-2.93365 -2.51456,-9.63915 -1.88592,-6.70549 -4.81957,-17.60192 -6.07686,-22.00241 -6.07686,-31.01292 0,-5.65776 5.02913,-11.10597 5.02912,-5.23867 10.05824,-5.23867 4.81957,0 12.5728,12.15371 7.75323,11.73461 12.78235,28.49835 1.67637,5.65776 3.98139,14.87782 2.30501,9.22005 5.44821,22.84059 3.35275,13.41099 7.54368,31.43201 4.19094,17.81147 9.63915,40.86161 5.23867,23.05014 9.42961,41.07115 4.40048,18.02102 7.75322,31.64156 3.5623,13.41099 6.28641,22.84059 2.7241,9.4296 4.81957,15.08736 15.92555,-26.82198 27.66017,-46.72891 11.73461,-20.11649 19.48784,-33.52748 7.75323,-13.62054 13.20144,-24.09787 5.65777,-10.68688 9.22006,-18.44011 3.56229,-7.96278 9.84869,-22.00241 6.28641,-14.24917 15.29691,-34.9943 0.83819,-1.88592 2.51457,-3.77184 1.88592,-2.09547 3.98138,-3.56229 2.30502,-1.67638 4.81958,-2.72411 2.51456,-1.04773 5.02912,-1.04773 7.54368,0 18.64966,24.30741 5.44821,12.15371 14.24917,32.89884 9.01051,20.74512 21.58331,50.29121 24.93606,59.30172 32.68929,69.35996 19.48785,-32.89883 34.36566,-69.9886 14.87782,-37.08977 25.5647,-75.85591 10.68689,-38.76614 16.1351,-71.87452 5.44821,-33.10839 6.70549,-60.9781 0,-2.72411 5.23867,-7.96277 5.23867,-5.23867 9.4296,-5.23867 9.8487,0 13.62054,7.75323 3.98139,7.33413 3.98139,14.87781 z"
       style="font-style:normal;font-variant:normal;font-weight:normal;font-stretch:normal;font-family:'Segoe Script';-inkscape-font-specification:'Segoe Script';fill:#ffffff;stroke-width:10.72879219"
       id="path18" />
  </g>
</svg>
